<svg width="24" height="16" viewBox="0 0 24 16" fill="none" xmlns="http://www.w3.org/2000/svg">
<mask id="path-1-inside-1" fill="white">
<path fill-rule="evenodd" clip-rule="evenodd" d="M16 6C17.1046 6 18 5.10457 18 4C18 2.89543 17.1046 2 16 2C14.8954 2 14 2.89543 14 4C14 5.10457 14.8954 6 16 6ZM16 8C18.2091 8 20 6.20914 20 4C20 1.79086 18.2091 0 16 0C13.7909 0 12 1.79086 12 4C12 6.20914 13.7909 8 16 8ZM21.6765 14H12.8927H11.2225H11.1912H10.6933H10.5803H10.4327H10.3937C10.4226 13.9509 10.4525 13.9019 10.4834 13.8531L10.5035 13.8824C10.5285 13.8422 10.5541 13.802 10.5803 13.762C10.8497 13.3516 11.1873 12.9559 11.5898 12.5986C11.6793 12.5191 11.772 12.4416 11.8678 12.3662L11.9109 12.3327L11.8997 12.3193C12.9254 11.5386 14.301 11 15.9839 11C19.1159 11 20.8819 12.455 21.6765 14ZM9.81923 16H9.77587C8.63301 16 7.6948 15.0815 8.09323 14.0463C9.0743 11.4971 11.8771 9 15.9839 9C20.4951 9 23.0557 11.4901 23.9233 14.0356C24.2809 15.0847 23.3348 16 22.1919 16H11.1912H10.5803H10.4327H9.81923ZM2.49971 14H4.02709H6.04423L6.03955 14.0287C5.98385 14.3806 5.98842 14.7258 6.04423 15.0561C6.10044 15.3887 6.20863 15.7062 6.35955 16H6.04423H4.21384H2.49971H1.77535C0.61974 16 -0.328048 15.0773 0.108321 14.0546C0.93291 12.1218 2.92247 10.2926 5.77972 10.0317C6.00872 10.0108 6.2433 10 6.48329 10C7.12402 10 7.71686 10.0638 8.26289 10.1806C7.71346 10.7502 7.24675 11.3682 6.86904 12.01L6.86884 12.0104C6.7435 12.0035 6.615 12 6.48329 12C6.39061 12 6.2991 12.0023 6.20878 12.0068C6.15349 12.0095 6.09863 12.0131 6.04423 12.0175C4.43531 12.1469 3.22036 12.98 2.49971 14ZM8 5.5C8 6.32843 7.32843 7 6.5 7C5.67157 7 5 6.32843 5 5.5C5 4.67157 5.67157 4 6.5 4C7.32843 4 8 4.67157 8 5.5ZM10 5.5C10 7.433 8.433 9 6.5 9C4.567 9 3 7.433 3 5.5C3 3.567 4.567 2 6.5 2C8.433 2 10 3.567 10 5.5Z"/>
</mask>
<path d="M21.6765 14V16H24.9539L23.4551 13.0853L21.6765 14ZM10.3937 14L8.67054 12.9847L6.89388 16H10.3937V14ZM10.4834 13.8531L12.1337 12.7231L10.4177 10.217L8.79343 12.7835L10.4834 13.8531ZM10.5035 13.8824L8.85331 15.0124L10.5871 17.5445L12.2036 14.9359L10.5035 13.8824ZM10.5803 13.762L8.90821 12.6648L8.9082 12.6648L10.5803 13.762ZM11.5898 12.5986L10.2621 11.1029L10.2621 11.1029L11.5898 12.5986ZM11.8678 12.3662L10.6384 10.7887L10.6314 10.7942L11.8678 12.3662ZM11.9109 12.3327L13.1403 13.9102L14.768 12.6416L13.4491 11.0544L11.9109 12.3327ZM11.8997 12.3193L10.6884 10.7278L9.02739 11.9921L10.3615 13.5975L11.8997 12.3193ZM8.09323 14.0463L9.95977 14.7646L8.09323 14.0463ZM23.9233 14.0356L25.8164 13.3904L23.9233 14.0356ZM2.49971 14L0.866265 12.8459L-1.36213 16H2.49971V14ZM6.04423 14L8.01824 14.3214L8.3962 12H6.04423V14ZM6.03955 14.0287L4.06553 13.7073L4.06416 13.716L6.03955 14.0287ZM6.04423 15.0561L8.01628 14.7229V14.7229L6.04423 15.0561ZM6.35955 16V18H9.63551L8.13852 15.0861L6.35955 16ZM0.108321 14.0546L1.94789 14.8394L0.108321 14.0546ZM5.77972 10.0317L5.96153 12.0235L5.96154 12.0235L5.77972 10.0317ZM8.26289 10.1806L9.70239 11.5691L12.2017 8.97787L8.68123 8.22483L8.26289 10.1806ZM6.86904 12.01L8.59254 13.0247L8.59272 13.0244L6.86904 12.01ZM6.86884 12.0104L6.75973 14.0074L7.97491 14.0738L8.59234 13.025L6.86884 12.0104ZM6.20878 12.0068L6.308 14.0043H6.308L6.20878 12.0068ZM6.04423 12.0175L5.88389 10.0239L5.88388 10.0239L6.04423 12.0175ZM16 4V8C18.2091 8 20 6.20914 20 4H16ZM16 4H20C20 1.79086 18.2091 0 16 0V4ZM16 4V0C13.7909 0 12 1.79086 12 4H16ZM16 4H12C12 6.20914 13.7909 8 16 8V4ZM18 4C18 5.10457 17.1046 6 16 6V10C19.3137 10 22 7.31371 22 4H18ZM16 2C17.1046 2 18 2.89543 18 4H22C22 0.686292 19.3137 -2 16 -2V2ZM14 4C14 2.89543 14.8954 2 16 2V-2C12.6863 -2 10 0.686292 10 4H14ZM16 6C14.8954 6 14 5.10457 14 4H10C10 7.31371 12.6863 10 16 10V6ZM12.8927 16H21.6765V12H12.8927V16ZM11.2225 16H12.8927V12H11.2225V16ZM11.1912 16H11.2225V12H11.1912V16ZM10.6933 16H11.1912V12H10.6933V16ZM10.5803 16H10.6933V12H10.5803V16ZM10.4327 16H10.5803V12H10.4327V16ZM10.3937 16H10.4327V12H10.3937V16ZM8.79343 12.7835C8.75128 12.8501 8.71031 12.9172 8.67054 12.9847L12.1168 15.0153C12.1349 14.9845 12.1538 14.9536 12.1734 14.9226L8.79343 12.7835ZM12.1538 12.7525L12.1337 12.7231L8.8332 14.983L8.85331 15.0124L12.1538 12.7525ZM8.9082 12.6648C8.87249 12.7192 8.83758 12.7739 8.80347 12.829L12.2036 14.9359C12.2194 14.9104 12.2357 14.8848 12.2525 14.8593L8.9082 12.6648ZM10.2621 11.1029C9.72733 11.5776 9.27403 12.1073 8.90821 12.6648L12.2525 14.8593C12.4254 14.5958 12.6473 14.3342 12.9176 14.0942L10.2621 11.1029ZM10.6314 10.7942C10.5042 10.8942 10.3811 10.9972 10.2621 11.1029L12.9176 14.0942C12.9775 14.041 13.0398 13.989 13.1043 13.9382L10.6314 10.7942ZM10.6814 10.7552L10.6384 10.7887L13.0973 13.9437L13.1403 13.9102L10.6814 10.7552ZM10.3615 13.5975L10.3727 13.6109L13.4491 11.0544L13.4379 11.041L10.3615 13.5975ZM15.9839 9C13.8558 9 12.0562 9.68677 10.6884 10.7278L13.111 13.9107C13.7946 13.3905 14.7461 13 15.9839 13V9ZM23.4551 13.0853C22.3044 10.8478 19.8355 9 15.9839 9V13C18.3964 13 19.4595 14.0622 19.8979 14.9147L23.4551 13.0853ZM9.77587 18H9.81923V14H9.77587V18ZM6.22669 13.3279C5.72728 14.6256 6.09602 15.9012 6.87918 16.7594C7.61724 17.5683 8.69075 18 9.77587 18V14C9.71813 14 9.7511 13.9725 9.83395 14.0633C9.88228 14.1162 9.95026 14.2171 9.98271 14.3681C10.0172 14.5285 9.99532 14.6722 9.95977 14.7646L6.22669 13.3279ZM15.9839 7C11.0091 7 7.49011 10.0451 6.22669 13.3279L9.95977 14.7646C10.6585 12.9491 12.745 11 15.9839 11V7ZM25.8164 13.3904C24.6734 10.037 21.3534 7 15.9839 7V11C19.6369 11 21.438 12.9433 22.0302 14.6809L25.8164 13.3904ZM22.1919 18C23.2777 18 24.3447 17.5693 25.085 16.7731C25.864 15.9352 26.2585 14.6876 25.8164 13.3904L22.0302 14.6809C21.9998 14.5916 21.9856 14.4592 22.0201 14.3163C22.0525 14.182 22.1138 14.0943 22.1556 14.0494C22.2265 13.9731 22.249 14 22.1919 14V18ZM11.1912 18H22.1919V14H11.1912V18ZM10.5803 18H11.1912V14H10.5803V18ZM10.4327 18H10.5803V14H10.4327V18ZM9.81923 18H10.4327V14H9.81923V18ZM4.02709 12H2.49971V16H4.02709V12ZM6.04423 12H4.02709V16H6.04423V12ZM8.01356 14.3501L8.01824 14.3214L4.07022 13.6786L4.06555 13.7073L8.01356 14.3501ZM8.01628 14.7229C7.99588 14.6021 7.99379 14.4751 8.01495 14.3415L4.06416 13.716C3.9739 14.286 3.98097 14.8495 4.07219 15.3893L8.01628 14.7229ZM8.13852 15.0861C8.07772 14.9677 8.037 14.8455 8.01628 14.7229L4.07219 15.3893C4.16389 15.932 4.33954 16.4447 4.58057 16.9139L8.13852 15.0861ZM6.04423 18H6.35955V14H6.04423V18ZM4.21384 18H6.04423V14H4.21384V18ZM2.49971 18H4.21384V14H2.49971V18ZM1.77535 18H2.49971V14H1.77535V18ZM-1.73125 13.2697C-2.2899 14.5791 -1.92815 15.8862 -1.13312 16.7583C-0.390889 17.5724 0.691461 18 1.77535 18V14C1.70363 14 1.73428 13.9663 1.82281 14.0634C1.87502 14.1206 1.95073 14.2328 1.9842 14.402C2.01981 14.5821 1.99001 14.7407 1.94789 14.8394L-1.73125 13.2697ZM5.59791 8.04001C1.93829 8.37408 -0.646657 10.7276 -1.73125 13.2697L1.94789 14.8394C2.51248 13.5161 3.90664 12.211 5.96153 12.0235L5.59791 8.04001ZM6.48329 8C6.18308 8 5.88783 8.01355 5.59791 8.04002L5.96154 12.0235C6.12962 12.0081 6.30352 12 6.48329 12V8ZM8.68123 8.22483C7.99066 8.07712 7.25726 8 6.48329 8V12C6.99079 12 7.44305 12.0505 7.84454 12.1363L8.68123 8.22483ZM8.59272 13.0244C8.89022 12.5189 9.26136 12.0263 9.70239 11.5691L6.82339 8.79212C6.16555 9.47414 5.60328 10.2175 5.14536 10.9957L8.59272 13.0244ZM8.59234 13.025L8.59254 13.0247L5.14555 10.9953L5.14535 10.9957L8.59234 13.025ZM6.48329 14C6.57942 14 6.67152 14.0026 6.75973 14.0074L6.97795 10.0133C6.81547 10.0045 6.65058 10 6.48329 10V14ZM6.308 14.0043C6.36509 14.0015 6.42352 14 6.48329 14V10C6.3577 10 6.23311 10.0031 6.10957 10.0092L6.308 14.0043ZM6.20457 14.011C6.23855 14.0083 6.27303 14.006 6.308 14.0043L6.10957 10.0092C6.03394 10.013 5.95871 10.0179 5.88389 10.0239L6.20457 14.011ZM4.13316 15.1541C4.5396 14.5788 5.23368 14.0891 6.20458 14.011L5.88388 10.0239C3.63694 10.2046 1.90112 11.3812 0.866265 12.8459L4.13316 15.1541ZM6.5 9C8.433 9 10 7.433 10 5.5H6C6 5.22386 6.22386 5 6.5 5V9ZM3 5.5C3 7.433 4.567 9 6.5 9V5C6.77614 5 7 5.22386 7 5.5H3ZM6.5 2C4.567 2 3 3.567 3 5.5H7C7 5.77614 6.77614 6 6.5 6V2ZM10 5.5C10 3.567 8.433 2 6.5 2V6C6.22386 6 6 5.77614 6 5.5H10ZM6.5 11C9.53757 11 12 8.53757 12 5.5H8C8 6.32843 7.32843 7 6.5 7V11ZM1 5.5C1 8.53757 3.46243 11 6.5 11V7C5.67157 7 5 6.32843 5 5.5H1ZM6.5 0C3.46243 0 1 2.46243 1 5.5H5C5 4.67157 5.67157 4 6.5 4V0ZM12 5.5C12 2.46243 9.53757 0 6.5 0V4C7.32843 4 8 4.67157 8 5.5H12Z" fill="#333333" mask="url(#path-1-inside-1)"/>
</svg>
