<svg width="56" height="56" viewBox="0 0 56 56" fill="none" xmlns="http://www.w3.org/2000/svg">
<circle opacity="0.2" cx="28" cy="28" r="28" fill="#EC393D"/>
<mask id="path-2-inside-1" fill="white">
<path fill-rule="evenodd" clip-rule="evenodd" d="M32 26C33.1046 26 34 25.1046 34 24C34 22.8954 33.1046 22 32 22C30.8954 22 30 22.8954 30 24C30 25.1046 30.8954 26 32 26ZM32 28C34.2091 28 36 26.2091 36 24C36 21.7909 34.2091 20 32 20C29.7909 20 28 21.7909 28 24C28 26.2091 29.7909 28 32 28ZM37.6765 34H28.8927H27.2225H27.1912H26.6933H26.5803H26.4327H26.3937C26.4226 33.9509 26.4525 33.9019 26.4834 33.8531L26.5035 33.8824C26.5285 33.8422 26.5541 33.802 26.5803 33.762C26.8497 33.3516 27.1873 32.9559 27.5898 32.5986C27.6793 32.5191 27.772 32.4416 27.8678 32.3662L27.9109 32.3327L27.8997 32.3193C28.9254 31.5386 30.301 31 31.9839 31C35.1159 31 36.8819 32.455 37.6765 34ZM25.8192 36H25.7759C24.633 36 23.6948 35.0815 24.0932 34.0463C25.0743 31.4971 27.8771 29 31.9839 29C36.4951 29 39.0557 31.4901 39.9233 34.0356C40.2809 35.0847 39.3348 36 38.1919 36H27.1912H26.5803H26.4327H25.8192ZM18.4997 34H20.0271H22.0442L22.0396 34.0287C21.9838 34.3806 21.9884 34.7258 22.0442 35.0561C22.1004 35.3887 22.2086 35.7062 22.3595 36H22.0442H20.2138H18.4997H17.7754C16.6197 36 15.672 35.0773 16.1083 34.0546C16.9329 32.1218 18.9225 30.2926 21.7797 30.0317C22.0087 30.0108 22.2433 30 22.4833 30C23.124 30 23.7169 30.0638 24.2629 30.1806C23.7135 30.7502 23.2468 31.3682 22.869 32.01L22.8688 32.0104C22.7435 32.0035 22.615 32 22.4833 32C22.3906 32 22.2991 32.0023 22.2088 32.0068C22.1535 32.0095 22.0986 32.0131 22.0442 32.0175C20.4353 32.1469 19.2204 32.98 18.4997 34ZM24 25.5C24 26.3284 23.3284 27 22.5 27C21.6716 27 21 26.3284 21 25.5C21 24.6716 21.6716 24 22.5 24C23.3284 24 24 24.6716 24 25.5ZM26 25.5C26 27.433 24.433 29 22.5 29C20.567 29 19 27.433 19 25.5C19 23.567 20.567 22 22.5 22C24.433 22 26 23.567 26 25.5Z"/>
</mask>
<path d="M37.6765 34V36H40.9539L39.4551 33.0853L37.6765 34ZM26.3937 34L24.6705 32.9847L22.8939 36H26.3937V34ZM26.4834 33.8531L28.1337 32.7231L26.4177 30.217L24.7934 32.7835L26.4834 33.8531ZM26.5035 33.8824L24.8533 35.0124L26.5871 37.5445L28.2036 34.9359L26.5035 33.8824ZM26.5803 33.762L24.9082 32.6648L24.9082 32.6648L26.5803 33.762ZM27.5898 32.5986L26.2621 31.1029L26.2621 31.1029L27.5898 32.5986ZM27.8678 32.3662L26.6384 30.7887L26.6314 30.7942L27.8678 32.3662ZM27.9109 32.3327L29.1403 33.9102L30.768 32.6416L29.4491 31.0544L27.9109 32.3327ZM27.8997 32.3193L26.6884 30.7278L25.0274 31.9921L26.3615 33.5975L27.8997 32.3193ZM24.0932 34.0463L25.9598 34.7646L24.0932 34.0463ZM39.9233 34.0356L41.8164 33.3904L39.9233 34.0356ZM18.4997 34L16.8663 32.8459L14.6379 36H18.4997V34ZM22.0442 34L24.0182 34.3214L24.3962 32H22.0442V34ZM22.0396 34.0287L20.0655 33.7073L20.0642 33.716L22.0396 34.0287ZM22.0442 35.0561L24.0163 34.7229V34.7229L22.0442 35.0561ZM22.3595 36V38H25.6355L24.1385 35.0861L22.3595 36ZM16.1083 34.0546L17.9479 34.8394L16.1083 34.0546ZM21.7797 30.0317L21.9615 32.0235L21.9615 32.0235L21.7797 30.0317ZM24.2629 30.1806L25.7024 31.5691L28.2017 28.9779L24.6812 28.2248L24.2629 30.1806ZM22.869 32.01L24.5925 33.0247L24.5927 33.0244L22.869 32.01ZM22.8688 32.0104L22.7597 34.0074L23.9749 34.0738L24.5923 33.025L22.8688 32.0104ZM22.2088 32.0068L22.308 34.0043H22.308L22.2088 32.0068ZM22.0442 32.0175L21.8839 30.0239L21.8839 30.0239L22.0442 32.0175ZM32 24V28C34.2091 28 36 26.2091 36 24H32ZM32 24H36C36 21.7909 34.2091 20 32 20V24ZM32 24V20C29.7909 20 28 21.7909 28 24H32ZM32 24H28C28 26.2091 29.7909 28 32 28V24ZM34 24C34 25.1046 33.1046 26 32 26V30C35.3137 30 38 27.3137 38 24H34ZM32 22C33.1046 22 34 22.8954 34 24H38C38 20.6863 35.3137 18 32 18V22ZM30 24C30 22.8954 30.8954 22 32 22V18C28.6863 18 26 20.6863 26 24H30ZM32 26C30.8954 26 30 25.1046 30 24H26C26 27.3137 28.6863 30 32 30V26ZM28.8927 36H37.6765V32H28.8927V36ZM27.2225 36H28.8927V32H27.2225V36ZM27.1912 36H27.2225V32H27.1912V36ZM26.6933 36H27.1912V32H26.6933V36ZM26.5803 36H26.6933V32H26.5803V36ZM26.4327 36H26.5803V32H26.4327V36ZM26.3937 36H26.4327V32H26.3937V36ZM24.7934 32.7835C24.7513 32.8501 24.7103 32.9172 24.6705 32.9847L28.1168 35.0153C28.1349 34.9845 28.1538 34.9536 28.1734 34.9226L24.7934 32.7835ZM28.1538 32.7525L28.1337 32.7231L24.8332 34.983L24.8533 35.0124L28.1538 32.7525ZM24.9082 32.6648C24.8725 32.7192 24.8376 32.7739 24.8035 32.829L28.2036 34.9359C28.2194 34.9104 28.2357 34.8848 28.2525 34.8593L24.9082 32.6648ZM26.2621 31.1029C25.7273 31.5776 25.274 32.1073 24.9082 32.6648L28.2525 34.8593C28.4254 34.5958 28.6473 34.3342 28.9176 34.0942L26.2621 31.1029ZM26.6314 30.7942C26.5042 30.8942 26.3811 30.9972 26.2621 31.1029L28.9176 34.0942C28.9775 34.041 29.0398 33.989 29.1043 33.9382L26.6314 30.7942ZM26.6814 30.7552L26.6384 30.7887L29.0973 33.9437L29.1403 33.9102L26.6814 30.7552ZM26.3615 33.5975L26.3727 33.6109L29.4491 31.0544L29.4379 31.041L26.3615 33.5975ZM31.9839 29C29.8558 29 28.0562 29.6868 26.6884 30.7278L29.111 33.9107C29.7946 33.3905 30.7461 33 31.9839 33V29ZM39.4551 33.0853C38.3044 30.8478 35.8355 29 31.9839 29V33C34.3964 33 35.4595 34.0622 35.8979 34.9147L39.4551 33.0853ZM25.7759 38H25.8192V34H25.7759V38ZM22.2267 33.3279C21.7273 34.6256 22.096 35.9012 22.8792 36.7594C23.6172 37.5683 24.6908 38 25.7759 38V34C25.7181 34 25.7511 33.9725 25.8339 34.0633C25.8823 34.1162 25.9503 34.2171 25.9827 34.3681C26.0172 34.5285 25.9953 34.6722 25.9598 34.7646L22.2267 33.3279ZM31.9839 27C27.0091 27 23.4901 30.0451 22.2267 33.3279L25.9598 34.7646C26.6585 32.9491 28.745 31 31.9839 31V27ZM41.8164 33.3904C40.6734 30.037 37.3534 27 31.9839 27V31C35.6369 31 37.438 32.9433 38.0302 34.6809L41.8164 33.3904ZM38.1919 38C39.2777 38 40.3447 37.5693 41.085 36.7731C41.864 35.9352 42.2585 34.6876 41.8164 33.3904L38.0302 34.6809C37.9998 34.5916 37.9856 34.4592 38.0201 34.3163C38.0525 34.182 38.1138 34.0943 38.1556 34.0494C38.2265 33.9731 38.249 34 38.1919 34V38ZM27.1912 38H38.1919V34H27.1912V38ZM26.5803 38H27.1912V34H26.5803V38ZM26.4327 38H26.5803V34H26.4327V38ZM25.8192 38H26.4327V34H25.8192V38ZM20.0271 32H18.4997V36H20.0271V32ZM22.0442 32H20.0271V36H22.0442V32ZM24.0136 34.3501L24.0182 34.3214L20.0702 33.6786L20.0655 33.7073L24.0136 34.3501ZM24.0163 34.7229C23.9959 34.6021 23.9938 34.4751 24.0149 34.3415L20.0642 33.716C19.9739 34.286 19.981 34.8495 20.0722 35.3893L24.0163 34.7229ZM24.1385 35.0861C24.0777 34.9677 24.037 34.8455 24.0163 34.7229L20.0722 35.3893C20.1639 35.932 20.3395 36.4447 20.5806 36.9139L24.1385 35.0861ZM22.0442 38H22.3595V34H22.0442V38ZM20.2138 38H22.0442V34H20.2138V38ZM18.4997 38H20.2138V34H18.4997V38ZM17.7754 38H18.4997V34H17.7754V38ZM14.2687 33.2697C13.7101 34.5791 14.0719 35.8862 14.8669 36.7583C15.6091 37.5724 16.6915 38 17.7754 38V34C17.7036 34 17.7343 33.9663 17.8228 34.0634C17.875 34.1206 17.9507 34.2328 17.9842 34.402C18.0198 34.5821 17.99 34.7407 17.9479 34.8394L14.2687 33.2697ZM21.5979 28.04C17.9383 28.3741 15.3533 30.7276 14.2687 33.2697L17.9479 34.8394C18.5125 33.5161 19.9066 32.211 21.9615 32.0235L21.5979 28.04ZM22.4833 28C22.1831 28 21.8878 28.0135 21.5979 28.04L21.9615 32.0235C22.1296 32.0081 22.3035 32 22.4833 32V28ZM24.6812 28.2248C23.9907 28.0771 23.2573 28 22.4833 28V32C22.9908 32 23.443 32.0505 23.8445 32.1363L24.6812 28.2248ZM24.5927 33.0244C24.8902 32.5189 25.2614 32.0263 25.7024 31.5691L22.8234 28.7921C22.1656 29.4741 21.6033 30.2175 21.1454 30.9957L24.5927 33.0244ZM24.5923 33.025L24.5925 33.0247L21.1455 30.9953L21.1453 30.9957L24.5923 33.025ZM22.4833 34C22.5794 34 22.6715 34.0026 22.7597 34.0074L22.978 30.0133C22.8155 30.0045 22.6506 30 22.4833 30V34ZM22.308 34.0043C22.3651 34.0015 22.4235 34 22.4833 34V30C22.3577 30 22.2331 30.0031 22.1096 30.0092L22.308 34.0043ZM22.2046 34.011C22.2386 34.0083 22.273 34.006 22.308 34.0043L22.1096 30.0092C22.0339 30.013 21.9587 30.0179 21.8839 30.0239L22.2046 34.011ZM20.1332 35.1541C20.5396 34.5788 21.2337 34.0891 22.2046 34.011L21.8839 30.0239C19.6369 30.2046 17.9011 31.3812 16.8663 32.8459L20.1332 35.1541ZM22.5 29C24.433 29 26 27.433 26 25.5H22C22 25.2239 22.2239 25 22.5 25V29ZM19 25.5C19 27.433 20.567 29 22.5 29V25C22.7761 25 23 25.2239 23 25.5H19ZM22.5 22C20.567 22 19 23.567 19 25.5H23C23 25.7761 22.7761 26 22.5 26V22ZM26 25.5C26 23.567 24.433 22 22.5 22V26C22.2239 26 22 25.7761 22 25.5H26ZM22.5 31C25.5376 31 28 28.5376 28 25.5H24C24 26.3284 23.3284 27 22.5 27V31ZM17 25.5C17 28.5376 19.4624 31 22.5 31V27C21.6716 27 21 26.3284 21 25.5H17ZM22.5 20C19.4624 20 17 22.4624 17 25.5H21C21 24.6716 21.6716 24 22.5 24V20ZM28 25.5C28 22.4624 25.5376 20 22.5 20V24C23.3284 24 24 24.6716 24 25.5H28Z" fill="#EC393D" mask="url(#path-2-inside-1)"/>
</svg>
