<svg width="20" height="18" viewBox="0 0 20 18" fill="none" xmlns="http://www.w3.org/2000/svg">
<path fill-rule="evenodd" clip-rule="evenodd" d="M18 1C18 0.447716 17.5523 0 17 0H3C2.44772 0 2 0.447716 2 1C2 1.55229 2.44772 2 3 2L17 2C17.5523 2 18 1.55229 18 1ZM2.56154 9L3.56154 5H16.4384L17.4384 9H17H10H3H2.56154ZM18.7192 11H18V17C18 17.5523 17.5523 18 17 18C16.4477 18 16 17.5523 16 17V11H11V17C11 17.5523 10.5523 18 10 18H3C2.44772 18 2 17.5523 2 17V11H1.28077C0.630196 11 0.152837 10.3886 0.310624 9.75747L1.81062 3.75746C1.92192 3.3123 2.3219 3 2.78077 3H17.2192C17.6781 3 18.0781 3.3123 18.1894 3.75747L19.6894 9.75747C19.8471 10.3886 19.3698 11 18.7192 11ZM4 11V16H9V11H4Z" fill="#333333"/>
</svg>
