<svg width="56" height="56" viewBox="0 0 56 56" fill="none" xmlns="http://www.w3.org/2000/svg">
<circle opacity="0.2" cx="28" cy="28" r="28" fill="#258FFB"/>
<path fill-rule="evenodd" clip-rule="evenodd" d="M36 20C36 19.4477 35.5523 19 35 19H21C20.4477 19 20 19.4477 20 20C20 20.5523 20.4477 21 21 21L35 21C35.5523 21 36 20.5523 36 20ZM20.5615 28L21.5615 24H34.4384L35.4384 28H35H28H21H20.5615ZM36.7192 30H36V36C36 36.5523 35.5523 37 35 37C34.4477 37 34 36.5523 34 36V30H29V36C29 36.5523 28.5523 37 28 37H21C20.4477 37 20 36.5523 20 36V30H19.2808C18.6302 30 18.1528 29.3886 18.3106 28.7575L19.8106 22.7575C19.9219 22.3123 20.3219 22 20.7808 22H35.2192C35.6781 22 36.0781 22.3123 36.1894 22.7575L37.6894 28.7575C37.8471 29.3886 37.3698 30 36.7192 30ZM22 30V35H27V30H22Z" fill="#258FFB"/>
</svg>
