<svg width="24" height="24" viewBox="0 0 24 24" fill="none" xmlns="http://www.w3.org/2000/svg">
<path fill-rule="evenodd" clip-rule="evenodd" d="M10 17H5V14C5 10.134 8.13401 7 12 7C15.866 7 19 10.134 19 14V14.0094V14.0187V14.028V14.0374V14.0467V14.0561V14.0654V14.0747V14.0841V14.0934V14.1027V14.112V14.1214V14.1307V14.14V14.1493V14.1586V14.1679V14.1772V14.1865V14.1958V14.2051V14.2144V14.2236V14.2329V14.2422V14.2515V14.2607V14.27V14.2793V14.2885V14.2978V14.307V14.3163V14.3255V14.3348V14.344V14.3533V14.3625V14.3717V14.3809V14.3902V14.3994V14.4086V14.4178V14.427V14.4362V14.4454V14.4546V14.4638V14.473V14.4822V14.4914V14.5006V14.5097V14.5189V14.5281V14.5372V14.5464V14.5555V14.5647V14.5738V14.583V14.5921V14.6013V14.6104V14.6195V14.6286V14.6378V14.6469V14.656V14.6651V14.6742V14.6833V14.6924V14.7015V14.7106V14.7197V14.7287V14.7378V14.7469V14.7559V14.765V14.7741V14.7831V14.7922V14.8012V14.8102V14.8193V14.8283V14.8373V14.8464V14.8554V14.8644V14.8734V14.8824V14.8914V14.9004V14.9094V14.9184V14.9273V14.9363V14.9453V14.9543V14.9632V14.9722V14.9811V14.9901V14.999V15.008V15.0169V15.0258V15.0347V15.0437V15.0526V15.0615V15.0704V15.0793V15.0882V15.0971V15.1059V15.1148V15.1237V15.1326V15.1414V15.1503V15.1591V15.168V15.1768V15.1857V15.1945V15.2033V15.2121V15.2209V15.2298V15.2386V15.2474V15.2562V15.2649V15.2737V15.2825V15.2913V15.3V15.3088V15.3176V15.3263V15.3351V15.3438V15.3525V15.3613V15.37V15.3787V15.3874V15.3961V15.4048V15.4135V15.4222V15.4309V15.4396V15.4482V15.4569V15.4656V15.4742V15.4829V15.4915V15.5001V15.5088V15.5174V15.526V15.5346V15.5432V15.5518V15.5604V15.569V15.5776V15.5862V15.5947V15.6033V15.6119V15.6204V15.629V15.6375V15.646V15.6546V15.6631V15.6716V15.6801V15.6886V15.6971V15.7056V15.7141V15.7225V15.731V15.7395V15.7479V15.7564V15.7648V15.7733V15.7817V15.7901V15.7985V15.8069V15.8153V15.8237V15.8321V15.8405V15.8489V15.8573V15.8656V15.874V15.8823V15.8907V15.899V15.9073V15.9157V15.924V15.9323V15.9406V15.9489V15.9572V15.9655V15.9737V15.982V15.9903V15.9985V16.0068V16.015V16.0232V16.0315V16.0397V16.0479V16.0561V16.0643V16.0725V16.0807V16.0888V16.097V16.1052V16.1133V16.1215V16.1296V16.1377V16.1459V16.154V16.1621V16.1702V16.1783V16.1864V16.1944V16.2025V16.2106V16.2186V16.2267V16.2347V16.2428V16.2508V16.2588V16.2668V16.2748V16.2828V16.2908V16.2988V16.3068V16.3147V16.3227V16.3306V16.3386V16.3465V16.3544V16.3623V16.3703V16.3782V16.3861V16.3939V16.4018V16.4097V16.4175V16.4254V16.4332V16.4411V16.4489V16.4567V16.4645V16.4724V16.4801V16.4879V16.4957V16.5035V16.5113V16.519V16.5268V16.5345V16.5422V16.5499V16.5577V16.5654V16.5731V16.5808V16.5884V16.5961V16.6038V16.6114V16.6191V16.6267V16.6343V16.642V16.6496V16.6572V16.6648V16.6724V16.6799V16.6875V16.6951V16.7026V16.7102V16.7177V16.7252V16.7327V16.7402V16.7477V16.7552V16.7627V16.7702V16.7776V16.7851V16.7925V16.8V16.8074V16.8148V16.8222V16.8296V16.837V16.8444V16.8518V16.8591V16.8665V16.8738V16.8812V16.8885V16.8958V16.9031V16.9104V16.9177V16.925V16.9323V16.9395V16.9468V16.954V16.9613V16.9685V16.9757V16.9829V16.9901V16.9973V17H12.9444L14.5 10H13.5L10 17ZM9 19H4.00001C3.44772 19 3 18.5543 3 18.002V14C3 9.02944 7.02944 5 12 5C16.9706 5 21 9.02944 21 14V18.0006C21 18.5529 20.5523 19 20 19H12.5H9Z" fill="#333333"/>
</svg>
