<svg width="18" height="14" viewBox="0 0 18 14" fill="none" xmlns="http://www.w3.org/2000/svg">
<path fill-rule="evenodd" clip-rule="evenodd" d="M7 12H2V9C2 5.13401 5.13401 2 9 2C12.866 2 16 5.13401 16 9V9.00935V9.0187V9.02805V9.03739V9.04673V9.05607V9.0654V9.07474V9.08406V9.09339V9.10271V9.11203V9.12135V9.13066V9.13998V9.14928V9.15859V9.16789V9.17719V9.18649V9.19578V9.20507V9.21436V9.22364V9.23292V9.2422V9.25147V9.26074V9.27001V9.27927V9.28853V9.29779V9.30704V9.31629V9.32554V9.33478V9.34402V9.35326V9.36249V9.37172V9.38095V9.39017V9.39939V9.4086V9.41781V9.42702V9.43623V9.44543V9.45462V9.46382V9.47301V9.48219V9.49138V9.50056V9.50973V9.5189V9.52807V9.53723V9.54639V9.55555V9.5647V9.57385V9.58299V9.59213V9.60126V9.6104V9.61952V9.62865V9.63777V9.64688V9.656V9.6651V9.67421V9.68331V9.6924V9.70149V9.71058V9.71966V9.72874V9.73781V9.74688V9.75595V9.76501V9.77407V9.78312V9.79217V9.80121V9.81025V9.81928V9.82831V9.83734V9.84636V9.85538V9.86439V9.8734V9.8824V9.8914V9.90039V9.90938V9.91837V9.92735V9.93632V9.94529V9.95426V9.96322V9.97218V9.98113V9.99008V9.99902V10.008V10.0169V10.0258V10.0347V10.0437V10.0526V10.0615V10.0704V10.0793V10.0882V10.0971V10.1059V10.1148V10.1237V10.1326V10.1414V10.1503V10.1591V10.168V10.1768V10.1857V10.1945V10.2033V10.2121V10.2209V10.2298V10.2386V10.2474V10.2562V10.2649V10.2737V10.2825V10.2913V10.3V10.3088V10.3176V10.3263V10.3351V10.3438V10.3525V10.3613V10.37V10.3787V10.3874V10.3961V10.4048V10.4135V10.4222V10.4309V10.4396V10.4482V10.4569V10.4656V10.4742V10.4829V10.4915V10.5001V10.5088V10.5174V10.526V10.5346V10.5432V10.5518V10.5604V10.569V10.5776V10.5862V10.5947V10.6033V10.6119V10.6204V10.629V10.6375V10.646V10.6546V10.6631V10.6716V10.6801V10.6886V10.6971V10.7056V10.7141V10.7225V10.731V10.7395V10.7479V10.7564V10.7648V10.7733V10.7817V10.7901V10.7985V10.8069V10.8153V10.8237V10.8321V10.8405V10.8489V10.8573V10.8656V10.874V10.8823V10.8907V10.899V10.9073V10.9157V10.924V10.9323V10.9406V10.9489V10.9572V10.9655V10.9737V10.982V10.9903V10.9985V11.0068V11.015V11.0232V11.0315V11.0397V11.0479V11.0561V11.0643V11.0725V11.0807V11.0888V11.097V11.1052V11.1133V11.1215V11.1296V11.1377V11.1459V11.154V11.1621V11.1702V11.1783V11.1864V11.1944V11.2025V11.2106V11.2186V11.2267V11.2347V11.2428V11.2508V11.2588V11.2668V11.2748V11.2828V11.2908V11.2988V11.3068V11.3147V11.3227V11.3306V11.3386V11.3465V11.3544V11.3623V11.3703V11.3782V11.3861V11.3939V11.4018V11.4097V11.4175V11.4254V11.4332V11.4411V11.4489V11.4567V11.4645V11.4724V11.4801V11.4879V11.4957V11.5035V11.5113V11.519V11.5268V11.5345V11.5422V11.5499V11.5577V11.5654V11.5731V11.5808V11.5884V11.5961V11.6038V11.6114V11.6191V11.6267V11.6343V11.642V11.6496V11.6572V11.6648V11.6724V11.6799V11.6875V11.6951V11.7026V11.7102V11.7177V11.7252V11.7327V11.7402V11.7477V11.7552V11.7627V11.7702V11.7776V11.7851V11.7925V11.8V11.8074V11.8148V11.8222V11.8296V11.837V11.8444V11.8518V11.8591V11.8665V11.8738V11.8812V11.8885V11.8958V11.9031V11.9104V11.9177V11.925V11.9323V11.9395V11.9468V11.954V11.9613V11.9685V11.9757V11.9829V11.9901V11.9973V12H9.94444L11.5 5H10.5L7 12ZM6 14H1.00001C0.44772 14 0 13.5543 0 13.002V9C0 4.02944 4.02944 0 9 0C13.9706 0 18 4.02944 18 9V13.0006C18 13.5529 17.5523 14 17 14H9.5H6Z" fill="#333333"/>
</svg>
